<?xml version="1.0" encoding="UTF-8" standalone="no"?>
<!DOCTYPE svg PUBLIC "-//W3C//DTD SVG 1.1//EN" "http://www.w3.org/Graphics/SVG/1.1/DTD/svg11.dtd">
<svg width="100%" height="100%" viewBox="0 0 107 113" version="1.1" xmlns="http://www.w3.org/2000/svg" xmlns:xlink="http://www.w3.org/1999/xlink" xml:space="preserve" xmlns:serif="http://www.serif.com/" style="fill-rule:evenodd;clip-rule:evenodd;stroke-linecap:round;stroke-linejoin:round;stroke-miterlimit:1.5;">
    <g transform="matrix(1,0,0,1,-156.958333,-83.861425)">
        <g transform="matrix(1,0,0,1,121.029373,-17)">
            <g transform="matrix(1,0,0,1,-7,19.903092)">
                <path d="M60.686,141.649C62.079,138.658 63.894,135.878 66.061,133.375C71.191,145.562 82.227,154 95,154C108.3,154 119.715,144.853 124.542,131.85C127.387,134.787 129.72,138.165 131.412,141.859C133.971,139.223 136.572,136.736 138.082,135.829C140.454,134.406 144.435,135.435 146,137C147.565,138.565 148.919,142.671 147.471,145.218C145.698,148.335 137.354,155.817 134.415,158.403C133.091,177.153 116.385,192 96,192C75.53,192 58.77,177.03 57.569,158.17C54.421,155.358 46.576,148.211 44.8,145.251C43.377,142.879 43.906,138.545 45.471,136.98C47.035,135.415 51.642,134.414 54.188,135.862C55.688,136.715 58.197,139.088 60.686,141.649Z" style="fill:rgb(93,255,140);stroke:black;stroke-width:2.08px;"/>
            </g>
        </g>
        <g transform="matrix(1,0,0,1,121.029373,-17)">
            <g transform="matrix(1,0,0,0.878049,-7,38.683579)">
                <ellipse cx="95" cy="113" rx="32" ry="41" style="fill:rgb(93,255,140);stroke:black;stroke-width:2.21px;"/>
            </g>
        </g>
        <g transform="matrix(1,0,0,1,121.029373,-16)">
            <g transform="matrix(1.06773,-0.616454,0.616454,1.06773,-81.126271,70.765891)">
                <ellipse cx="84.5" cy="104.5" rx="8.5" ry="11.5"/>
            </g>
        </g>
        <g transform="matrix(1,0,0,1,121.029373,-16)">
            <g transform="matrix(1.5,0,0,1.5,-45.5,-27.246731)">
                <circle cx="77.5" cy="101.5" r="2.5" style="fill:white;"/>
            </g>
        </g>
        <g transform="matrix(1,0,0,1,121.029373,-16)">
            <g transform="matrix(0.629964,0,0,0.629964,27.752666,67.283342)">
                <circle cx="77.5" cy="101.5" r="2.5" style="fill:white;"/>
            </g>
        </g>
        <g transform="matrix(0.5,0.866025,-0.866025,0.5,285.853585,-29.582617)">
            <g transform="matrix(1.06773,-0.616454,0.616454,1.06773,-60.389689,66.876523)">
                <ellipse cx="84.5" cy="104.5" rx="8.5" ry="11.5"/>
            </g>
        </g>
        <g transform="matrix(0.5,0.866025,-0.866025,0.5,285.853585,-29.582617)">
            <g transform="matrix(1.5,0,0,1.5,-25.205446,-31.472377)">
                <circle cx="77.5" cy="101.5" r="2.5" style="fill:white;"/>
            </g>
        </g>
        <g transform="matrix(0.5,0.866025,-0.866025,0.5,285.853585,-29.582617)">
            <g transform="matrix(0.629964,0,0,0.629964,43.746274,64.846471)">
                <circle cx="77.5" cy="101.5" r="2.5" style="fill:white;"/>
            </g>
        </g>
        <g transform="matrix(1,0,0,1,121.029373,-17)">
            <g transform="matrix(2.303262,0,0,2.208883,-386.471965,-149.654062)">
                <ellipse cx="206" cy="139.377" rx="5" ry="4.623" style="fill:rgb(52,240,137);stroke:black;stroke-width:0.92px;"/>
            </g>
        </g>
        <g transform="matrix(1,0,0,1,121.029373,-17)">
            <g transform="matrix(1.627813,0,0,1.5,-20.174513,-71.596908)">
                <ellipse cx="79.575" cy="181" rx="5.575" ry="6" style="fill:rgb(93,255,140);stroke:black;stroke-width:1.33px;"/>
            </g>
        </g>
        <g transform="matrix(1,0,0,1,121.029373,-17)">
            <g transform="matrix(1.627813,0,0,1.5,-62.891589,-71.596908)">
                <ellipse cx="79.575" cy="181" rx="5.575" ry="6" style="fill:rgb(93,255,140);stroke:black;stroke-width:1.33px;"/>
            </g>
        </g>
    </g>
</svg>
