<?xml version="1.0" encoding="UTF-8" standalone="no"?>
<!DOCTYPE svg PUBLIC "-//W3C//DTD SVG 1.1//EN" "http://www.w3.org/Graphics/SVG/1.1/DTD/svg11.dtd">
<svg width="100%" height="100%" viewBox="0 0 84 78" version="1.1" xmlns="http://www.w3.org/2000/svg" xmlns:xlink="http://www.w3.org/1999/xlink" xml:space="preserve" xmlns:serif="http://www.serif.com/" style="fill-rule:evenodd;clip-rule:evenodd;stroke-linecap:round;stroke-linejoin:round;stroke-miterlimit:1.5;">
    <g transform="matrix(1,0,0,1,-387.224912,-111.140875)">
        <g transform="matrix(0.639111,0,0,0.639111,362.521861,-28.927103)">
            <path d="M59,244C61.482,240.304 66.043,231.88 72,229C79.583,225.333 95.333,223.167 104.5,222C111.94,221.053 120.75,219.833 127,222C133.25,224.167 137.667,230.667 142,235C146.014,239.014 150.17,243.079 153,248C156.833,254.667 162.5,268.333 165,275C166.562,279.164 168.165,283.556 168,288C167.833,292.5 165.833,298 164,302C162.305,305.699 159.798,309.046 157,312C154,315.167 149.474,319.396 146,321C143.014,322.379 138.813,319.69 136.153,321.624C132.487,324.291 129.276,334.437 124,337C118.724,339.563 110.833,337.5 104.5,337C98.272,336.508 91.858,336.17 86,334C79.25,331.5 68.85,326.75 64,322C59.723,317.81 59.402,309.833 56.902,305.5C54.844,301.932 51.09,299.549 49,296C46.35,291.5 42.333,283.5 41,278.5C39.926,274.474 40.167,269.417 41,266C41.745,262.945 43.686,260.129 46,258C48.685,255.53 54.942,253.51 57.108,251.177C58.792,249.364 57.621,246.054 59,244Z" style="fill:rgb(202,104,43);stroke:black;stroke-width:3.26px;"/>
        </g>
        <g transform="matrix(0.459794,0.036261,-0.040927,0.518965,406.620974,-6.711983)">
            <path d="M83,238C80.167,240 76.667,243.667 76,246C75.386,248.15 77.096,250.828 79,252C83.333,254.667 96.333,262.333 102,262C107.417,261.681 110.833,253.667 113,250C114.729,247.073 116.333,241.833 115,240C113.667,238.167 108.232,239.881 105,239C101.333,238 96.667,234.167 93,234C89.414,233.837 85.833,236 83,238Z" style="fill:rgb(166,92,53);"/>
        </g>
        <g transform="matrix(0.610794,-0.028399,0.031003,0.666793,358.237419,-25.434784)">
            <path d="M135,272C130.5,272.833 125,277.833 122,281C119.437,283.705 118.167,287.833 117,291C115.938,293.884 114.028,297.085 115,300C116,303 119.833,309.167 123,309C126.167,308.833 130.333,300 134,299C137.667,298 141.5,303.833 145,303C148.5,302.167 156.128,295.02 155,294C153.872,292.98 149,287 148,284C147.15,281.45 150.975,277.823 149,276C146.833,274 139.5,271.167 135,272Z" style="fill:rgb(166,92,53);"/>
        </g>
        <g transform="matrix(0.639111,0,0,0.639111,362.521861,-28.927103)">
            <path d="M78,241.647C79.5,246.48 83.833,257.941 87,263C89.379,266.801 92.833,270.833 97,272C101.167,273.167 110.809,272.5 112,270C113.191,267.5 106.388,261.539 104.147,257C101.814,252.274 100.358,245.48 98,241.647C96.067,238.505 93.333,235.274 90,234C86.667,232.726 80,232.726 78,234C76,235.274 77.245,239.212 78,241.647Z" style="fill:rgb(166,92,53);"/>
        </g>
        <g transform="matrix(0.639111,0,0,0.639111,362.521861,-28.927103)">
            <path d="M143,262C141.833,263.833 136.667,266.333 138,268C139.333,269.667 148.031,272.667 151,272C153.969,271.333 155.813,266.5 155.813,264C155.813,261.5 152.802,258.167 151,257C149.321,255.913 146.333,256.167 145,257C143.667,257.833 143.964,260.486 143,262Z" style="fill:rgb(166,92,53);"/>
        </g>
        <g transform="matrix(0.639111,0,0,0.639111,362.521861,-28.927103)">
            <path d="M99.133,288C96.633,289.167 91.356,292.667 89,296C86.644,299.333 86.819,304.196 85,308C83.167,311.833 78.167,315.833 78,319C77.833,322.167 81.047,325.453 84,327C87.5,328.833 95.167,330.768 99,330C102.608,329.278 106.667,325.561 107,322.394C107.333,319.228 100.873,313.899 101,311C101.127,308.101 106.261,307.5 107.761,305C109.261,302.5 110.627,298.667 110,296C109.373,293.333 105.811,290.333 104,289C102.666,288.018 100.634,287.3 99.133,288Z" style="fill:rgb(166,92,53);"/>
        </g>
        <g transform="matrix(0.485738,-0.073639,0.077842,0.513462,344.118376,7.04612)">
            <path d="M69,279.524C66.833,281.858 60.333,285.421 60,289C59.667,292.579 66,297.333 67,301C67.881,304.232 64.68,307.921 66,311C67.5,314.5 72.167,320.833 76,322C79.833,323.167 85.75,321 89,318C92.25,315 94.417,308.583 95.5,304C96.535,299.621 96.25,294.579 95.5,290.5C94.785,286.611 92.75,282.608 91,279.524C89.417,276.735 88,272.754 85,272C82,271.246 75.667,273.746 73,275C71.178,275.857 70.37,278.049 69,279.524Z" style="fill:rgb(166,92,53);"/>
        </g>
    </g>
</svg>
