<?xml version="1.0" encoding="UTF-8" standalone="no"?>
<!DOCTYPE svg PUBLIC "-//W3C//DTD SVG 1.1//EN" "http://www.w3.org/Graphics/SVG/1.1/DTD/svg11.dtd">
<svg width="100%" height="100%" viewBox="0 0 328 464" version="1.1" xmlns="http://www.w3.org/2000/svg" xmlns:xlink="http://www.w3.org/1999/xlink" xml:space="preserve" xmlns:serif="http://www.serif.com/" style="fill-rule:evenodd;clip-rule:evenodd;stroke-linejoin:round;stroke-miterlimit:2;">
    <g transform="matrix(1,0,0,1,-27.876785,-28.063532)">
        <g transform="matrix(1.942645,0,0,1.942645,-28.694564,-39.339135)">
            <g transform="matrix(0.6125,0,0,0.6125,22.185443,42.565035)">
                <circle cx="14.236" cy="18.45" r="2.913" style="fill:white;"/>
            </g>
            <g transform="matrix(0.6125,0,0,0.6125,131.65698,124.867161)">
                <circle cx="14.236" cy="18.45" r="2.913" style="fill:white;"/>
            </g>
            <g transform="matrix(0.6125,0,0,0.6125,80.184173,227.843528)">
                <circle cx="14.236" cy="18.45" r="2.913" style="fill:white;"/>
            </g>
            <g transform="matrix(0.6125,0,0,0.6125,144.263745,259.956129)">
                <circle cx="14.236" cy="18.45" r="2.913" style="fill:white;"/>
            </g>
            <g transform="matrix(-0.612466,-0.006438,0.006438,-0.612466,183.371573,127.28928)">
                <circle cx="14.236" cy="18.45" r="2.913" style="fill:white;"/>
            </g>
            <g transform="matrix(-0.612466,-0.006438,0.006438,-0.612466,106.267929,146.686771)">
                <circle cx="14.236" cy="18.45" r="2.913" style="fill:white;"/>
            </g>
            <g transform="matrix(-0.612466,-0.006438,0.006438,-0.612466,142.816668,52.983675)">
                <circle cx="14.236" cy="18.45" r="2.913" style="fill:white;"/>
            </g>
            <g transform="matrix(-0.612466,-0.006438,0.006438,-0.612466,91.525492,276.171935)">
                <circle cx="14.236" cy="18.45" r="2.913" style="fill:white;"/>
            </g>
            <g transform="matrix(-0.612466,-0.006438,0.006438,-0.612466,55.536553,222.95148)">
                <circle cx="14.236" cy="18.45" r="2.913" style="fill:white;"/>
            </g>
            <g transform="matrix(-0.612466,-0.006438,0.006438,-0.612466,134.628456,184.136203)">
                <circle cx="14.236" cy="18.45" r="2.913" style="fill:white;"/>
            </g>
            <g transform="matrix(-0.612466,-0.006438,0.006438,-0.612466,134.628456,184.136203)">
                <circle cx="14.236" cy="18.45" r="2.913" style="fill:white;"/>
            </g>
            <g transform="matrix(-0.612466,-0.006438,0.006438,-0.612466,40.91622,171.379995)">
                <circle cx="14.236" cy="18.45" r="2.913" style="fill:white;"/>
            </g>
            <g transform="matrix(-0.612466,-0.006438,0.006438,-0.612466,70.889983,151.351791)">
                <circle cx="14.236" cy="18.45" r="2.913" style="fill:white;"/>
            </g>
            <g transform="matrix(-0.612466,-0.006438,0.006438,-0.612466,203.387424,157.98647)">
                <circle cx="14.236" cy="18.45" r="2.913" style="fill:white;"/>
            </g>
            <g transform="matrix(-0.612466,-0.006438,0.006438,-0.612466,131.649608,256.012114)">
                <circle cx="14.236" cy="18.45" r="2.913" style="fill:white;"/>
            </g>
            <g transform="matrix(-0.612466,-0.006438,0.006438,-0.612466,44.484289,275.331481)">
                <circle cx="14.236" cy="18.45" r="2.913" style="fill:white;"/>
            </g>
            <g transform="matrix(-0.612466,-0.006438,0.006438,-0.612466,194.253911,241.173957)">
                <circle cx="14.236" cy="18.45" r="2.913" style="fill:white;"/>
            </g>
            <g transform="matrix(-0.612466,-0.006438,0.006438,-0.612466,163.334232,225.730147)">
                <circle cx="14.236" cy="18.45" r="2.913" style="fill:white;"/>
            </g>
            <g transform="matrix(-0.612466,-0.006438,0.006438,-0.612466,204.7406,187.036292)">
                <circle cx="14.236" cy="18.45" r="2.913" style="fill:white;"/>
            </g>
            <g transform="matrix(0.266019,0.551716,-0.551716,0.266019,48.409645,96.124968)">
                <circle cx="14.236" cy="18.45" r="2.913" style="fill:white;"/>
            </g>
            <g transform="matrix(0.266019,0.551716,-0.551716,0.266019,172.191278,54.742248)">
                <circle cx="14.236" cy="18.45" r="2.913" style="fill:white;"/>
            </g>
            <g transform="matrix(0.266019,0.551716,-0.551716,0.266019,197.6115,30.116407)">
                <circle cx="14.236" cy="18.45" r="2.913" style="fill:white;"/>
            </g>
            <g transform="matrix(0.266019,0.551716,-0.551716,0.266019,61.481266,23.718233)">
                <circle cx="14.236" cy="18.45" r="2.913" style="fill:white;"/>
            </g>
            <g transform="matrix(0.266019,0.551716,-0.551716,0.266019,119.914906,70.422434)">
                <circle cx="14.236" cy="18.45" r="2.913" style="fill:white;"/>
            </g>
            <g transform="matrix(0.266019,0.551716,-0.551716,0.266019,90.919962,177.266814)">
                <circle cx="14.236" cy="18.45" r="2.913" style="fill:white;"/>
            </g>
            <g transform="matrix(0.266019,0.551716,-0.551716,0.266019,68.280075,66.854364)">
                <circle cx="14.236" cy="18.45" r="2.913" style="fill:white;"/>
            </g>
        </g>
    </g>
</svg>
